<?xml version="1.0" standalone="no"?>
<!DOCTYPE svg PUBLIC "-//W3C//DTD SVG 20010904//EN"
 "http://www.w3.org/TR/2001/REC-SVG-20010904/DTD/svg10.dtd">
<svg version="1.0" xmlns="http://www.w3.org/2000/svg"
 width="1200.000000pt" height="1200.000000pt" viewBox="0 0 1200.000000 1200.000000"
 preserveAspectRatio="xMidYMid meet">
<metadata>
Created by potrace 1.11, written by Peter Selinger 2001-2013
</metadata>
<g transform="translate(0.000000,1200.000000) scale(0.100000,-0.100000)"
fill="#000000" stroke="none">
<path d="M2551 8961 c-73 -87 -147 -173 -163 -192 -16 -19 -48 -56 -71 -83
-23 -27 -58 -67 -78 -90 -20 -23 -96 -111 -169 -196 -146 -172 -224 -261 -257
-297 -11 -13 -35 -42 -53 -63 -18 -21 -42 -50 -53 -63 -25 -27 -19 -20 -377
-437 -144 -168 -274 -318 -288 -335 -15 -16 -58 -66 -96 -110 -38 -44 -90
-105 -116 -135 -26 -30 -165 -192 -310 -360 -144 -168 -274 -319 -289 -335
-14 -17 -51 -59 -81 -95 -30 -36 -65 -76 -77 -90 -74 -86 -73 -84 -59 -100
109 -128 221 -257 230 -265 6 -5 33 -37 61 -70 27 -33 52 -62 55 -65 3 -3 48
-54 100 -115 52 -60 107 -123 121 -140 15 -16 77 -88 139 -160 62 -71 124
-144 139 -160 14 -17 53 -62 86 -100 33 -39 72 -83 87 -100 14 -16 36 -41 48
-55 23 -28 57 -67 211 -245 57 -66 116 -133 130 -150 65 -74 118 -135 169
-195 30 -35 71 -82 91 -104 29 -33 366 -423 689 -796 26 -30 109 -126 185
-213 l137 -157 3313 0 3313 0 53 62 c30 34 59 66 64 72 6 6 37 43 70 81 33 39
62 72 65 75 3 3 30 34 60 70 30 35 62 71 70 80 8 9 38 42 65 75 49 58 158 184
260 300 46 53 228 263 295 341 104 121 164 190 169 194 3 3 31 34 61 70 30 36
57 67 60 70 3 3 46 52 95 110 82 95 133 154 160 184 6 6 48 56 95 111 47 55
90 105 96 110 6 6 53 60 104 120 52 61 99 115 104 121 6 6 34 37 61 69 60 71
178 207 250 290 180 206 214 246 255 294 25 29 60 69 78 89 18 21 46 53 62 73
l29 35 -76 90 c-79 94 -161 189 -178 208 -6 6 -62 72 -125 146 -63 74 -278
326 -479 560 -200 234 -383 448 -406 475 -139 162 -193 226 -235 275 -26 30
-80 93 -120 140 -103 121 -120 141 -154 181 -17 19 -52 60 -77 90 -129 151
-737 862 -781 912 l-50 57 -3316 -1 -3317 -1 -134 -157z m6689 -241 c40 -47
92 -107 116 -135 23 -27 58 -68 76 -89 18 -22 116 -136 218 -255 102 -119 246
-288 320 -376 74 -87 155 -182 180 -210 25 -28 65 -75 90 -105 25 -29 78 -92
119 -139 41 -47 88 -102 105 -123 62 -73 560 -656 655 -767 25 -29 54 -63 64
-75 10 -11 28 -32 40 -46 12 -14 46 -54 77 -90 30 -36 57 -67 60 -70 17 -15
220 -260 220 -265 0 -5 -147 -177 -205 -241 -11 -12 -162 -187 -375 -434 -78
-91 -147 -169 -154 -175 -6 -5 -28 -31 -49 -57 -21 -26 -43 -53 -50 -60 -7 -7
-53 -60 -102 -118 -50 -58 -93 -107 -96 -110 -3 -3 -64 -72 -135 -155 -175
-203 -176 -205 -203 -234 -12 -14 -39 -46 -60 -70 -20 -24 -43 -51 -52 -60 -8
-9 -71 -81 -140 -161 -68 -80 -126 -147 -129 -150 -3 -3 -34 -39 -70 -80 -36
-41 -69 -80 -75 -86 -5 -6 -32 -37 -60 -70 -42 -49 -198 -230 -272 -314 -12
-14 -30 -35 -40 -46 -10 -12 -40 -47 -68 -79 -27 -32 -55 -65 -62 -74 -10 -14
-302 -16 -3177 -16 l-3166 0 -32 40 c-35 42 -232 270 -277 320 -15 17 -74 84
-130 150 -57 66 -116 134 -132 152 -28 31 -262 302 -309 357 -14 16 -45 53
-70 81 -25 28 -65 75 -90 104 -25 29 -52 61 -61 70 -8 9 -87 99 -174 201 -88
102 -162 187 -165 190 -3 3 -34 39 -70 80 -36 41 -69 80 -75 86 -5 6 -30 35
-54 64 -25 29 -50 58 -56 64 -5 6 -82 94 -170 196 -88 102 -164 190 -170 196
-6 6 -31 35 -56 64 -24 29 -49 58 -54 64 -6 6 -53 60 -105 121 -52 60 -108
125 -125 143 -52 58 -52 57 20 140 37 42 86 99 109 125 22 27 50 58 61 71 11
12 43 48 70 81 57 67 185 215 224 260 14 17 80 93 146 170 66 77 122 142 125
145 3 3 30 34 59 70 30 36 60 70 65 75 6 6 105 120 221 255 115 135 219 256
231 270 106 122 331 383 529 615 132 154 247 286 255 295 8 9 35 40 60 69 25
29 55 65 68 80 12 14 48 55 79 91 l56 66 3162 -1 3162 0 73 -85z"/>
<path d="M7098 7490 c0 -3 -2 -580 -3 -1282 l-1 -1278 193 0 c106 0 193 3 194
8 0 4 2 315 3 692 1 377 6 694 10 705 32 75 104 124 195 132 81 7 138 -11 187
-61 75 -75 74 -60 74 -813 l0 -663 196 0 195 0 -4 713 c-2 391 -7 728 -11 747
-29 143 -84 239 -184 318 -37 29 -91 61 -120 72 -156 59 -359 43 -493 -39
l-46 -28 1 379 c1 209 -2 385 -6 391 -7 12 -376 19 -380 7z"/>
<path d="M2543 7466 c-4 -6 -7 -579 -7 -1273 l-1 -1263 193 0 192 0 0 133 c0
72 1 335 3 582 l2 450 130 -1 c145 -1 185 -13 245 -76 78 -82 109 -188 125
-428 3 -47 8 -112 10 -145 2 -33 7 -100 10 -150 10 -178 23 -318 31 -347 5
-16 23 -18 196 -18 l190 0 -6 38 c-8 48 -14 123 -21 242 -3 52 -8 124 -10 160
-2 36 -7 110 -10 165 -10 170 -22 305 -31 350 -2 11 -6 33 -9 48 -10 51 -54
157 -85 202 -17 24 -50 61 -75 81 l-44 37 27 21 c132 104 201 272 207 509 9
372 -172 614 -506 678 -83 16 -747 20 -756 5z m689 -335 c62 -20 120 -71 151
-132 23 -46 30 -75 34 -152 14 -228 -63 -377 -212 -413 -22 -6 -94 -10 -160
-9 l-120 0 -2 363 -3 362 138 -4 c75 -2 154 -9 174 -15z"/>
<path d="M4592 6808 c-175 -24 -322 -128 -406 -288 -85 -163 -110 -315 -110
-675 0 -278 12 -402 48 -526 53 -179 188 -330 347 -389 114 -42 310 -49 419
-16 258 78 409 292 439 621 10 110 7 594 -4 665 -61 393 -259 603 -581 613
-49 2 -117 0 -152 -5z m191 -334 c28 -9 60 -31 81 -55 76 -83 86 -146 85 -559
0 -256 -2 -335 -14 -400 -28 -164 -117 -249 -250 -238 -119 10 -194 112 -212
286 -9 80 -9 586 -1 692 11 144 57 228 148 269 54 25 101 26 163 5z"/>
<path d="M6085 6803 c-189 -38 -332 -157 -410 -342 -33 -80 -63 -206 -72 -306
-10 -106 -10 -517 0 -625 22 -233 92 -387 236 -513 36 -31 154 -93 192 -101
13 -2 44 -9 69 -15 46 -11 228 -8 290 4 152 30 284 133 363 282 50 96 89 244
91 352 l1 43 -175 0 c-215 0 -212 0 -207 -9 8 -13 -12 -145 -29 -196 -20 -59
-74 -123 -122 -143 -43 -18 -123 -18 -165 0 -45 18 -96 72 -119 124 -24 53
-28 70 -38 152 -10 72 -5 672 5 735 16 103 66 189 126 220 37 20 125 27 168
15 109 -31 168 -134 174 -303 1 -60 5 -77 17 -78 8 0 94 -1 190 -1 l175 -1 -2
74 c-2 98 -43 252 -90 341 -54 103 -147 195 -243 240 -41 20 -97 41 -125 48
-73 18 -219 19 -300 3z"/>
<path d="M9158 6815 c-2 -2 -25 -6 -51 -9 -165 -22 -311 -134 -395 -301 -28
-57 -66 -170 -76 -225 -12 -75 -16 -100 -21 -155 -7 -64 -7 -453 0 -550 24
-351 168 -572 430 -660 77 -26 262 -29 347 -5 191 53 330 188 399 387 28 80
46 173 45 225 l-1 43 -180 0 -180 1 -11 -77 c-21 -136 -81 -233 -161 -260 -47
-15 -143 -6 -179 17 -79 51 -119 142 -130 294 -11 157 -10 209 6 212 8 2 203
4 432 4 363 -1 417 1 421 14 8 36 -5 387 -18 450 -3 14 -8 39 -10 55 -11 60
-58 187 -93 252 -79 142 -228 252 -377 278 -42 7 -192 15 -197 10z m179 -354
c47 -23 84 -71 107 -139 19 -54 33 -172 27 -232 -1 -6 -89 -10 -242 -10 l-240
0 2 73 c2 96 28 195 63 246 59 85 185 113 283 62z"/>
</g>
</svg>
