<svg width="25" height="25" viewBox="0 0 25 25" fill="none" xmlns="http://www.w3.org/2000/svg">
<path d="M8.55191 21.1134C13.7543 21.1134 17.7082 18.0484 17.7082 13.7648C17.7082 9.48117 13.6219 6.25 8.91135 6.25C3.74676 6.25 1.0415 10.6259 1.0415 13.3032C1.0415 15.9804 2.47926 17.5314 2.89546 17.993C3.29273 18.4546 3.36841 19.9502 2.27117 21.1134C1.15501 22.2766 3.91702 22.1658 6.18717 20.3748" stroke="#DBDBDB" stroke-width="2" stroke-miterlimit="10" stroke-linecap="round" stroke-linejoin="round"/>
<circle cx="5.20817" cy="13.5417" r="1.04167" fill="#DBDBDB"/>
<ellipse cx="9.37516" cy="13.5417" rx="1.04167" ry="1.04167" fill="#DBDBDB"/>
<circle cx="13.5417" cy="13.5417" r="1.04167" fill="#DBDBDB"/>
<path d="M11.623 3.12492C12.9473 2.45931 14.4816 2.08325 16.0887 2.08325C21.2532 2.08325 23.9585 6.45918 23.9585 9.13644C23.9585 11.8137 22.5207 13.3647 22.1045 13.8263C21.7073 14.2879 21.6316 15.7834 22.7288 16.9467C23.6435 17.8999 21.9538 17.9976 20.0646 17.0161" stroke="#DBDBDB" stroke-width="2" stroke-miterlimit="10" stroke-linecap="round" stroke-linejoin="round"/>
</svg>
