<svg width="24" height="24" viewBox="0 0 24 24" fill="none" xmlns="http://www.w3.org/2000/svg">
<path fill-rule="evenodd" clip-rule="evenodd" d="M18.625 23.7103H1.96374C1.42562 23.7103 1 23.2857 1 22.7466V6.08532C1 5.54719 1.42468 5.12157 1.96374 5.12157H9.8979C11.1729 5.12157 11.1729 7.07625 9.8979 7.07625H2.95566V21.7537H17.6331V14.8969C17.6331 13.6219 19.5878 13.6219 19.5878 14.8969V22.7456C19.5878 23.2837 19.1631 23.7094 18.624 23.7094L18.625 23.7103ZM18.6813 8.77778L15.9326 6.02906L9.89703 12.0646L9.41516 15.3514L12.702 14.8133L18.6804 8.77774L18.6813 8.77778ZM17.321 4.64066L20.0697 7.38938L21.3447 6.08625L18.624 3.33753L17.321 4.64066ZM7.26159 16.3716L8.02659 11.4694C8.08285 11.2706 8.19628 11.0728 8.33785 10.9313L17.9153 1.29741C18.3118 0.900862 18.9072 0.900862 19.3037 1.29741L23.4689 5.40645C23.8374 5.80301 23.8655 6.39833 23.4689 6.76677L13.807 16.4287C13.6655 16.5703 13.4667 16.6556 13.2689 16.7118L8.39473 17.505C8.36661 17.4768 7.06254 17.4487 7.26128 16.3715L7.26159 16.3716Z" fill="#D75F8D"/>
</svg>
