<svg width="26" height="25" viewBox="0 0 26 25" fill="none" xmlns="http://www.w3.org/2000/svg">
<path d="M15.0161 1.04175C14.9415 1.04175 14.867 1.04175 14.7924 1.04175C14.37 1.0666 13.9475 1.09146 13.5747 1.2903C12.9783 1.61342 12.6552 2.30937 12.4813 2.98047C11.7855 5.66485 10.7914 8.02611 9.92165 10.6608C9.92165 10.6856 9.92165 10.6856 9.8968 10.7105C9.59859 11.5804 9.32523 12.4504 9.02702 13.2955C8.97731 13.4197 8.85306 13.4943 8.82821 13.3203C8.80336 13.1215 8.87791 12.8978 8.90276 12.6741C8.92761 12.4255 8.95246 12.2018 8.95246 11.9533C8.97731 11.481 8.97731 11.0088 9.00217 10.5365C9.05187 9.84056 9.12642 9.11975 9.15127 8.4238C9.17612 7.72785 9.17612 7.0319 9.22582 6.33595C9.22582 6.23652 9.25067 6.1371 9.25067 6.03768C9.30038 5.44115 9.37493 4.86948 9.44948 4.2978C9.47433 4.02439 9.49918 3.75099 9.47433 3.47758C9.44948 3.3533 9.44948 3.22902 9.37493 3.15446C9.27553 3.07989 9.15127 3.05503 9.02702 3.05503C8.4803 3.03018 7.90873 3.10475 7.36201 3.25388C6.88984 3.37815 6.44252 3.62671 6.16916 4.07411C6.04491 4.27295 5.97036 4.47179 5.8958 4.69549C5.62244 5.36659 5.42363 6.06254 5.19998 6.73363C4.97632 7.40473 4.75266 8.07582 4.50415 8.74692C4.3799 9.07004 4.28049 9.3683 4.18109 9.69142C4.08169 9.98969 3.98228 10.288 3.88288 10.6111C3.83318 10.7602 3.80833 10.8845 3.78348 11.0336C3.75862 11.1579 3.70892 11.2822 3.63437 11.4064C3.63437 11.4313 3.60952 11.4313 3.58467 11.4562C3.55982 11.4562 3.53497 11.4562 3.53497 11.4562C3.51012 11.4562 3.51012 11.4313 3.51012 11.4064C3.43556 10.9839 3.41071 10.5614 3.41071 10.1388C3.41071 9.86541 3.43556 9.592 3.43556 9.29374C3.46041 8.57293 3.48526 7.85212 3.51012 7.13132C3.51012 7.10646 3.51012 7.10646 3.51012 7.08161C3.53497 6.48508 3.65922 5.93826 2.93854 6.03768C2.49123 6.08739 2.06876 6.21167 1.6463 6.38566C0.60256 6.23652 1.04988 9.51744 1.04988 10.0891C1.04988 11.7047 1.04988 13.2955 1.04988 14.9111C1.04988 15.5324 1.04988 16.1538 1.32324 16.7006C1.72085 17.5209 2.98825 18.018 3.46041 16.9989C3.63437 16.6012 3.65922 16.1538 3.75862 15.7313C3.85803 15.2839 3.98228 14.8116 4.10654 14.3642C4.35505 13.4694 4.65326 12.5746 4.95147 11.6799C5.02602 11.4562 5.10057 11.2076 5.19998 10.9839C5.37393 10.5117 5.54789 10.0394 5.69699 9.56715C5.8958 8.97062 6.11946 8.39894 6.31827 7.80241C6.39282 7.80241 6.41767 7.90184 6.41767 7.9764C6.41767 9.86541 6.41767 11.7793 6.41767 13.6683C6.41767 14.6625 6.41767 15.6567 6.41767 16.6509C6.41767 17.3469 6.41767 18.0428 6.41767 18.7388C6.41767 18.9128 6.41767 19.1116 6.46737 19.2856C6.56678 19.5839 6.84014 19.7579 7.1135 19.8573C7.41171 19.9816 7.83417 20.081 8.18209 20.0561C8.35604 20.0561 8.53 19.9816 8.6294 19.8324C8.6791 19.7579 8.70395 19.6336 8.72881 19.5342C9.00216 18.192 9.27553 16.8746 9.64829 15.5573C10.0211 14.24 10.5429 12.9723 11.0151 11.6799C11.1393 11.3319 11.2884 10.959 11.4127 10.5862C11.86 9.34345 12.2328 8.05097 12.7298 6.83305C12.7547 6.75849 12.7795 6.68392 12.8541 6.65907C12.9286 7.05675 12.8541 7.529 12.8541 7.92669C12.8541 8.37409 12.8292 8.79663 12.8292 9.24403C12.8044 10.114 12.7795 10.9839 12.7547 11.8538C12.6801 13.5937 12.6055 15.3336 12.5807 17.0735C12.5558 18.192 12.5558 19.3353 12.5558 20.4538C12.5807 21.3237 12.4067 22.5914 13.0032 23.337C13.3511 23.7844 13.9226 23.9584 14.4942 23.9833C14.5936 23.9833 14.7179 23.9833 14.8173 23.9336C14.9912 23.8341 15.0161 23.6104 15.0161 23.4116C15.0161 19.9816 15.2397 16.5515 15.3391 13.1215C15.4385 9.66657 15.5628 6.21167 15.6622 2.75677C15.6622 2.43365 15.6871 2.13539 15.6871 1.81227C15.6871 1.63828 15.6871 1.46429 15.6125 1.31516C15.5131 1.11631 15.2646 1.04175 15.0161 1.04175ZM11.7358 5.56543C11.7358 5.56543 11.7109 5.56543 11.7358 5.56543C11.7109 5.56543 11.7109 5.56543 11.7358 5.56543C11.7109 5.56543 11.7358 5.56543 11.7358 5.56543Z" fill="#D75F8D"/>
<path d="M25.9751 13.1463C26.0497 12.4504 25.9503 11.9533 25.3042 11.655C25.1799 11.6053 25.0308 11.5307 24.8817 11.5059C24.7326 11.481 24.5835 11.5307 24.4841 11.655C24.3847 11.7793 24.3847 11.9781 24.3847 12.1521C24.4095 12.7238 24.3101 13.2706 24.1859 13.8174C24.0368 14.588 23.8628 15.3833 23.5149 16.1041C23.1918 16.8249 22.67 17.496 21.9741 17.8689C21.6014 18.0677 21.1541 18.192 20.7316 18.1174C20.2346 18.018 19.8121 17.6452 19.5387 17.1978C19.3648 16.9244 19.2654 16.6012 19.166 16.303C19.0417 15.8804 18.9672 15.6816 19.3399 15.3833C20.1103 14.7619 20.7564 13.9666 21.1789 13.0469C21.8996 11.5307 22.1481 9.86543 21.4026 8.29954C21.328 8.15041 21.2535 8.00127 21.1541 7.877C20.7316 7.35503 20.0606 7.25561 19.4393 7.4296C18.3459 7.70301 17.501 8.64751 17.1034 9.7163C16.7306 10.6857 16.6809 11.7544 16.7057 12.7735C16.7306 13.3949 16.7803 14.0163 16.9046 14.6128C16.9543 14.8365 16.9791 15.0602 17.0537 15.2839C17.0785 15.4082 17.1034 15.5076 17.1531 15.6319C17.1779 15.7313 17.2276 15.8307 17.2276 15.9301C17.2276 16.129 17.0288 16.2284 16.9046 16.3278C16.7803 16.4024 16.5566 16.5267 16.5566 16.6758C16.5566 16.7255 16.656 16.8498 16.7057 16.8995C16.8549 17.0238 17.0785 16.7752 17.2028 16.7007C17.2525 16.6758 17.2773 16.6509 17.327 16.6261C17.4264 16.5764 17.5258 16.6261 17.5755 16.7255C17.6252 16.8249 17.6749 16.9492 17.7246 17.0486C17.7992 17.1481 17.8489 17.2475 17.9234 17.3469C18.0725 17.5457 18.2465 17.7197 18.4205 17.8937C18.7435 18.2168 19.0914 18.5151 19.489 18.6891C19.7624 18.8134 20.0606 18.8631 20.3588 18.8879C21.9493 19.0122 23.4403 18.1174 24.4344 16.9244C25.2048 15.9799 25.7018 14.8365 25.9254 13.6434C25.9254 13.5192 25.9503 13.3452 25.9751 13.1463ZM20.4582 8.72208C20.8558 9.41803 20.8807 10.2631 20.8061 11.0336C20.6322 12.4752 20.0606 13.9169 18.9672 14.8614C18.9423 14.8862 18.8926 14.9111 18.8678 14.9111C18.8429 14.8862 18.8181 14.8614 18.8181 14.8116C18.7187 14.1654 18.7435 13.4446 18.7435 12.7984C18.7435 12.1273 18.7932 11.4313 18.9423 10.7602C19.0417 10.2631 19.1908 9.74115 19.4393 9.29375C19.5636 9.07006 19.9612 8.34925 20.3091 8.54809C20.3588 8.57295 20.4085 8.64751 20.4582 8.72208Z" fill="#D75F8D"/>
<path d="M14.37 18.0427C14.3451 18.0427 14.3451 18.0427 14.3203 18.0427C14.1712 18.0427 14.0718 17.9185 14.0718 17.7693C14.0718 17.6202 14.196 17.5208 14.3451 17.5208C14.5191 17.5208 14.693 17.4711 14.9167 17.3965C15.5877 17.1479 16.8054 16.4271 17.3769 16.0046C17.5012 15.93 17.6503 15.9549 17.7249 16.0792C17.7994 16.2034 17.7746 16.3526 17.6503 16.4271C17.029 16.8745 15.7865 17.6202 15.0658 17.8687C14.867 17.9682 14.6185 18.0427 14.37 18.0427Z" fill="#D75F8D"/>
</svg>
