<svg width="25" height="25" viewBox="0 0 25 25" fill="none" xmlns="http://www.w3.org/2000/svg">
<path fill-rule="evenodd" clip-rule="evenodd" d="M22.1435 7.69327H17.3067V2.85648C17.3067 2.31522 16.8685 1.875 16.3252 1.875H8.67475C8.13324 1.875 7.69327 2.31496 7.69327 2.85648V7.69327H2.85648C2.31496 7.69327 1.875 8.13323 1.875 8.67475V16.3252C1.875 16.8668 2.31496 17.3067 2.85648 17.3067H7.69327V22.1435C7.69327 22.685 8.13323 23.125 8.67475 23.125H16.3252C16.8685 23.125 17.3067 22.6848 17.3067 22.1435V17.3067H22.1435C22.6867 17.3067 23.125 16.8665 23.125 16.3252V8.67475C23.125 8.13349 22.6867 7.69327 22.1435 7.69327ZM21.162 15.3438H16.3252C15.7837 15.3438 15.3438 15.7837 15.3438 16.3252V21.162H9.65623V16.3252C9.65623 15.7837 9.21627 15.3438 8.67475 15.3438H3.83796V9.65623H8.67475C9.21626 9.65623 9.65623 9.21627 9.65623 8.67475V3.83796H15.3438V8.67475C15.3438 9.21626 15.7837 9.65623 16.3252 9.65623H21.162V15.3438Z" fill="#DBDBDB"/>
</svg>
