<svg width="25" height="25" viewBox="0 0 25 25" fill="none" xmlns="http://www.w3.org/2000/svg">
<path d="M15.3107 8.85357V6.97884C15.3107 5.42633 14.0512 4.16675 12.4986 4.16675H5.93709C4.38458 4.16675 3.125 5.42633 3.125 6.97884V18.2272C3.125 19.7797 4.38458 21.0393 5.93709 21.0393H12.4986C14.0512 21.0393 15.3107 19.7797 15.3107 18.2272V16.3525C15.3107 15.8362 14.8897 15.4151 14.3734 15.4151C13.8571 15.4151 13.436 15.8362 13.436 16.3525V18.2272C13.436 18.7435 13.0149 19.1646 12.4986 19.1646H5.93709C5.42081 19.1646 4.99973 18.7435 4.99973 18.2272V6.97884C4.99973 6.46256 5.42081 6.04148 5.93709 6.04148H12.4986C13.0149 6.04148 13.436 6.46256 13.436 6.97884V8.85357C13.436 9.36985 13.8571 9.79094 14.3734 9.79094C14.8897 9.79094 15.3107 9.36985 15.3107 8.85357Z" fill="#262626"/>
<path d="M7.81166 13.5403H20.9348C21.3156 13.5403 21.6561 13.3133 21.8026 12.9618C21.949 12.6103 21.8685 12.2075 21.6012 11.9402L18.7891 9.12813C18.4229 8.76198 17.8297 8.76198 17.4636 9.12813C17.0974 9.49429 17.0974 10.0875 17.4636 10.4536L18.6756 11.6656H7.81532C7.29904 11.6656 6.87795 12.0867 6.87795 12.603C6.87429 13.1193 7.29537 13.5403 7.81166 13.5403ZM18.7854 16.0778L21.5975 13.2657C21.9637 12.8996 21.9637 12.3064 21.5975 11.9402C21.2313 11.5741 20.6382 11.5741 20.272 11.9402L17.4599 14.7523C17.0938 15.1185 17.0938 15.7117 17.4599 16.0778C17.8261 16.444 18.4193 16.444 18.7854 16.0778Z" fill="#262626"/>
</svg>
