<svg width="25" height="25" viewBox="0 0 25 25" fill="none" xmlns="http://www.w3.org/2000/svg">
<path fill-rule="evenodd" clip-rule="evenodd" d="M19.2708 2.08333H5.72917C4.57857 2.08333 3.64583 3.01607 3.64583 4.16667V20.8333C3.64583 21.9839 4.57857 22.9167 5.72916 22.9167H14.5833V19.7917C14.5833 17.4905 16.4488 15.625 18.75 15.625H21.3542V4.16667C21.3542 3.01607 20.4214 2.08333 19.2708 2.08333ZM17.2184 22.1713C17.061 22.3591 16.8738 22.5154 16.6667 22.6355V19.7917C16.6667 18.6411 17.5994 17.7083 18.75 17.7083H20.9518C20.925 17.7449 20.897 17.7807 20.8678 17.8156L17.2184 22.1713ZM5.72917 0C3.42798 0 1.5625 1.86548 1.5625 4.16667V20.8333C1.5625 23.1345 3.42798 25 5.72916 25H15.6215C16.8542 25 18.0236 24.4542 18.8153 23.5092L22.4647 19.1535C23.0931 18.4035 23.4375 17.4562 23.4375 16.4776V4.16667C23.4375 1.86548 21.572 0 19.2708 0H5.72917ZM8.33333 8.33333C7.75804 8.33333 7.29167 8.7997 7.29167 9.375C7.29167 9.9503 7.75804 10.4167 8.33333 10.4167H16.6667C17.242 10.4167 17.7083 9.9503 17.7083 9.375C17.7083 8.7997 17.242 8.33333 16.6667 8.33333H8.33333ZM7.29167 12.5C7.29167 11.9247 7.75804 11.4583 8.33333 11.4583H16.6667C17.242 11.4583 17.7083 11.9247 17.7083 12.5C17.7083 13.0753 17.242 13.5417 16.6667 13.5417H8.33333C7.75804 13.5417 7.29167 13.0753 7.29167 12.5ZM8.33333 14.5833C7.75804 14.5833 7.29167 15.0497 7.29167 15.625C7.29167 16.2003 7.75804 16.6667 8.33333 16.6667H11.4583C12.0336 16.6667 12.5 16.2003 12.5 15.625C12.5 15.0497 12.0336 14.5833 11.4583 14.5833H8.33333Z" fill="#DBDBDB"/>
</svg>
