<svg width="25" height="25" viewBox="0 0 25 25" fill="none" xmlns="http://www.w3.org/2000/svg">
<path fill-rule="evenodd" clip-rule="evenodd" d="M8.85421 11.4583C10.0048 11.4583 10.9375 10.5256 10.9375 9.375C10.9375 8.22441 10.0048 7.29167 8.85421 7.29167C7.70362 7.29167 6.77088 8.22441 6.77088 9.375C6.77088 10.5256 7.70362 11.4583 8.85421 11.4583ZM8.85421 13.5417C11.1554 13.5417 13.0209 11.6762 13.0209 9.375C13.0209 7.07381 11.1554 5.20833 8.85421 5.20833C6.55302 5.20833 4.68754 7.07381 4.68754 9.375C4.68754 11.6762 6.55302 13.5417 8.85421 13.5417Z" fill="#DBDBDB"/>
<path fill-rule="evenodd" clip-rule="evenodd" d="M18.2292 8.33333C19.0922 8.33333 19.7917 7.63378 19.7917 6.77083C19.7917 5.90789 19.0922 5.20833 18.2292 5.20833C17.3663 5.20833 16.6667 5.90789 16.6667 6.77083C16.6667 7.63378 17.3663 8.33333 18.2292 8.33333ZM18.2292 10.4167C20.2428 10.4167 21.875 8.78437 21.875 6.77083C21.875 4.7573 20.2428 3.125 18.2292 3.125C16.2157 3.125 14.5834 4.7573 14.5834 6.77083C14.5834 8.78437 16.2157 10.4167 18.2292 10.4167Z" fill="#DBDBDB"/>
<path fill-rule="evenodd" clip-rule="evenodd" d="M3.10461 21.0386L3.10394 21.0419L3.10435 21.04L3.11013 21.0147C3.11621 20.9891 3.12682 20.9464 3.14278 20.8891C3.17477 20.7742 3.22785 20.6023 3.3083 20.3924C3.47023 19.97 3.73704 19.4097 4.15368 18.8542C4.96419 17.7735 6.36545 16.6667 8.85421 16.6667C11.343 16.6667 12.7442 17.7735 13.5547 18.8542C13.9714 19.4097 14.2382 19.97 14.4001 20.3924C14.4806 20.6023 14.5336 20.7742 14.5656 20.8891C14.5816 20.9464 14.5922 20.9891 14.5983 21.0147L14.6041 21.04L14.6045 21.042C14.7192 21.6036 15.2667 21.9673 15.8293 21.8548C16.3935 21.7419 16.7593 21.1932 16.6465 20.629L16.644 20.6167C16.6397 20.5968 16.6463 20.6279 16.6463 20.6279L16.646 20.6267L16.6454 20.6238L16.644 20.6167L16.6397 20.5968C16.6363 20.581 16.6316 20.5603 16.6256 20.5349C16.6136 20.4843 16.5963 20.4151 16.5725 20.33C16.5252 20.16 16.4521 19.9251 16.3454 19.6467C16.133 19.0925 15.7813 18.3507 15.2214 17.6042C14.0788 16.0807 12.0946 14.5833 8.85421 14.5833C5.6138 14.5833 3.62964 16.0807 2.48702 17.6042C1.9271 18.3507 1.57542 19.0925 1.363 19.6467C1.25628 19.9251 1.18321 20.16 1.13586 20.33C1.11215 20.4151 1.09479 20.4843 1.0828 20.5349C1.07681 20.5603 1.07215 20.581 1.06872 20.5968L1.06446 20.6167L1.06298 20.6238L1.06241 20.6267L1.06216 20.6279L1.06298 20.6238L1.06193 20.629C0.949108 21.1932 1.31496 21.7419 1.87908 21.8548C2.44176 21.9673 2.98918 21.6036 3.10394 21.0419M3.10461 21.0386L3.10435 21.04L3.10461 21.0386Z" fill="#DBDBDB"/>
<path fill-rule="evenodd" clip-rule="evenodd" d="M17.8646 13.5417C16.6477 13.5417 15.7404 13.8018 15.0622 14.1529C14.5513 14.4173 13.9227 14.2175 13.6583 13.7066C13.3938 13.1957 13.5936 12.5671 14.1046 12.3027C15.0991 11.7879 16.3381 11.4583 17.8646 11.4583C20.7692 11.4583 22.5774 12.6507 23.6412 13.9116C24.1605 14.5271 24.4885 15.1409 24.6878 15.6031C24.7879 15.8351 24.8568 16.032 24.902 16.1761C24.9246 16.2483 24.9414 16.3076 24.9532 16.3519C24.9591 16.374 24.9637 16.3924 24.9673 16.4069L24.9718 16.4255L24.9734 16.4325L24.9741 16.4355L24.9744 16.4368L24.9746 16.438C25.1009 16.9993 24.7483 17.5566 24.187 17.6829C23.6281 17.8087 23.073 17.4595 22.9437 16.9023L22.94 16.8879C22.9355 16.8711 22.9271 16.8409 22.914 16.7991C22.8878 16.7154 22.8432 16.5867 22.7748 16.4281C22.6372 16.1091 22.4085 15.6813 22.049 15.2551C21.355 14.4326 20.1163 13.5417 17.8646 13.5417Z" fill="#DBDBDB"/>
</svg>
